<svg id="apple-black-silhouette-with-a-leaf" xmlns="http://www.w3.org/2000/svg" width="16.953" height="21.464" viewBox="0 0 16.953 21.464">
  <g id="Group_173" data-name="Group 173">
    <path id="Path_254" data-name="Path 254" d="M14.212,7.487a17.164,17.164,0,0,1,1.729-2.4h0a15.614,15.614,0,0,1,1.89-1.677.237.237,0,0,0-.046-.44l-1.512-.707a.553.553,0,0,0-.646.161,25.835,25.835,0,0,0-2.434,5.019c-4.069-1.841-7.938.737-7.938,5.221,0,4.683,3.6,11.8,8.475,9.649,5.131,2.221,8.478-4.966,8.478-9.649C22.208,8.146,18.731,5.494,14.212,7.487Z" transform="translate(-5.255 -1.268)" fill="#e3e3e3"/>
    <path id="Path_255" data-name="Path 255" d="M18.361,4.7a.524.524,0,0,0,.462-.463A4.293,4.293,0,0,0,17.7,1.131,4.287,4.287,0,0,0,14.59.005a.525.525,0,0,0-.462.463,4.284,4.284,0,0,0,1.124,3.11A4.288,4.288,0,0,0,18.361,4.7Z" transform="translate(-10.315 0)" fill="#e3e3e3"/>
  </g>
</svg>
