<svg xmlns="http://www.w3.org/2000/svg" width="64" height="64" viewBox="0 0 64 64">
  <g id="Close" transform="translate(-169 -749)">
    <circle id="Ellipse_11" data-name="Ellipse 11" cx="32" cy="32" r="32" transform="translate(169 749)" fill="#ff6969"/>
    <path id="phone" d="M21.111,16.225v2.86a1.909,1.909,0,0,1-2.083,1.907,18.93,18.93,0,0,1-8.244-2.927,18.61,18.61,0,0,1-5.732-5.721A18.844,18.844,0,0,1,2.12,4.078,1.908,1.908,0,0,1,4.021,2H6.887A1.909,1.909,0,0,1,8.8,3.64a12.222,12.222,0,0,0,.669,2.679,1.9,1.9,0,0,1-.43,2.012L7.823,9.542a15.27,15.27,0,0,0,5.732,5.721l1.213-1.211a1.913,1.913,0,0,1,2.016-.429,12.286,12.286,0,0,0,2.684.667,1.908,1.908,0,0,1,1.643,1.935Z" transform="translate(189.388 769.5)" fill="none" stroke="#fff" stroke-linecap="round" stroke-linejoin="round" stroke-width="2"/>
  </g>
</svg>
