<svg xmlns="http://www.w3.org/2000/svg" width="26.525" height="16.463" viewBox="0 0 26.525 16.463">
  <g id="road-with-two-placeholders" transform="translate(0 0)">
    <g id="Group_167" data-name="Group 167">
      <path id="Path_246" data-name="Path 246" d="M10,99.8a5,5,0,1,0-9.469,2.249L5,111.262l4.468-9.214A4.97,4.97,0,0,0,10,99.8Zm-5,2.768A2.768,2.768,0,1,1,7.77,99.8,2.771,2.771,0,0,1,5,102.569Z" transform="translate(0 -94.799)" fill="#f9f285"/>
      <path id="Path_247" data-name="Path 247" d="M388.347,97.469a3.037,3.037,0,0,0-2.713,4.4l2.713,5.6,2.714-5.6a3.037,3.037,0,0,0-2.714-4.4Zm0,4.719a1.681,1.681,0,1,1,1.681-1.681A1.683,1.683,0,0,1,388.347,102.188Z" transform="translate(-364.86 -97.327)" fill="#f9f285"/>
      <path id="Path_248" data-name="Path 248" d="M114.829,256.823l-.519-.009-.26.54-2.227,4.617-3.231-.071-1.347,2.778,5.374-.117.95-.021.247-.794,1.633-5.258,9-.157-.655-1.35Z" transform="translate(-101.552 -248.215)" fill="#f9f285"/>
    </g>
  </g>
</svg>
