<svg xmlns="http://www.w3.org/2000/svg" width="11.93" height="22.066" viewBox="0 0 11.93 22.066">
  <g id="facebook-logo" transform="translate(-22.077)">
    <path id="Path_312" data-name="Path 312" d="M33.558,0,30.7,0C27.482,0,25.4,2.132,25.4,5.431v2.5H22.527a.45.45,0,0,0-.45.45v3.628a.45.45,0,0,0,.45.45H25.4v9.154a.45.45,0,0,0,.45.45h3.754a.45.45,0,0,0,.45-.45V12.462h3.364a.45.45,0,0,0,.45-.45V8.385a.45.45,0,0,0-.45-.45H30.058V5.812c0-1.02.243-1.538,1.572-1.538h1.928a.45.45,0,0,0,.45-.45V.455A.45.45,0,0,0,33.558,0Z" fill="#3581b8"/>
  </g>
</svg>
