<svg xmlns="http://www.w3.org/2000/svg" width="24" height="22" viewBox="0 0 24 22">
  <g id="feedback" transform="translate(0 -21.333)">
    <g id="Group_2596" data-name="Group 2596" transform="translate(0 21.333)">
      <g id="Group_2595" data-name="Group 2595">
        <path id="Path_331" data-name="Path 331" d="M107.166,129h11a.5.5,0,0,0,0-1h-11a.5.5,0,0,0,0,1Z" transform="translate(-101.666 -122.999)" fill="#f3ae21"/>
        <path id="Path_332" data-name="Path 332" d="M113.166,256h-6a.5.5,0,1,0,0,1h6a.5.5,0,1,0,0-1Z" transform="translate(-101.666 -245)" fill="#f3ae21"/>
        <path id="Path_333" data-name="Path 333" d="M22.086,23.333c-.029,0-.057.007-.086.009v-.009a2,2,0,0,0-2-2H2a2,2,0,0,0-2,2v19.5a.5.5,0,0,0,.309.462.494.494,0,0,0,.191.038.5.5,0,0,0,.354-.146l4.854-4.854H20a2,2,0,0,0,2-2V28.04L23.439,26.6h0a1.914,1.914,0,0,0-1.354-3.267ZM21,36.333a1,1,0,0,1-1,1H5.5a.5.5,0,0,0-.354.146L1,41.626V23.333a1,1,0,0,1,1-1H20a1,1,0,0,1,1,1v.342a1.881,1.881,0,0,0-.268.219l-5.44,5.439H5.5a.5.5,0,0,0,0,1h8.99l-.48,2.4a.5.5,0,0,0,.49.6.51.51,0,0,0,.1-.01l2.5-.5a.5.5,0,0,0,.256-.137L21,29.04Zm-4.247-4.46-1.615.323.323-1.617L20,26.04l1.293,1.293Zm5.979-5.979L22,26.626l-1.293-1.293.733-.733a.914.914,0,0,1,1.293,1.293Z" transform="translate(0 -21.333)" fill="#f3ae21"/>
      </g>
    </g>
  </g>
</svg>
