<svg xmlns="http://www.w3.org/2000/svg" width="16" height="16" viewBox="0 0 16 16">
  <g id="Icon" transform="translate(5 6.403)">
    <path id="health-cross" d="M14.5,20.5h-4a1.335,1.335,0,0,1-1.333-1.333V15.833H5.833A1.335,1.335,0,0,1,4.5,14.5v-4A1.335,1.335,0,0,1,5.833,9.167H9.167V5.833A1.335,1.335,0,0,1,10.5,4.5h4a1.335,1.335,0,0,1,1.333,1.333V9.167h3.333A1.335,1.335,0,0,1,20.5,10.5v4a1.335,1.335,0,0,1-1.333,1.333H15.833v3.333A1.335,1.335,0,0,1,14.5,20.5Zm-8.667-10v4H10.5v4.667h4V14.5h4.667v-4H14.5V5.833h-4V10.5Z" transform="translate(-9.5 -10.903)" fill="#f3ae21"/>
  </g>
</svg>
