<svg id="Icon" xmlns="http://www.w3.org/2000/svg" width="18.264" height="14.535" viewBox="0 0 18.264 14.535">
  <path id="Path_297" data-name="Path 297" d="M72.223,120.939l-6.514,5.37a.154.154,0,0,1-.006.034.155.155,0,0,0-.006.034v5.438a.736.736,0,0,0,.725.725h4.35v-4.35h2.9v4.35h4.35a.736.736,0,0,0,.725-.725v-5.438a.159.159,0,0,0-.011-.068Z" transform="translate(-63.091 -118.005)" fill="#f3ae21"/>
  <path id="Path_298" data-name="Path 298" d="M18.138,54.075l-2.481-2.062V47.391a.349.349,0,0,0-.363-.362H13.119a.349.349,0,0,0-.363.362V49.6L9.993,47.289a1.405,1.405,0,0,0-1.722,0L.125,54.075A.329.329,0,0,0,0,54.318a.367.367,0,0,0,.079.266l.7.838a.386.386,0,0,0,.238.125.421.421,0,0,0,.272-.079l7.839-6.537,7.839,6.537a.349.349,0,0,0,.238.079h.034a.387.387,0,0,0,.238-.125l.7-.838a.367.367,0,0,0,.079-.266A.33.33,0,0,0,18.138,54.075Z" transform="translate(0.001 -46.994)" fill="#f3ae21"/>
</svg>
