<svg xmlns="http://www.w3.org/2000/svg" width="19.891" height="23.87" viewBox="0 0 19.891 23.87">
  <g id="notification" transform="translate(-42.675)" opacity="0.82">
    <g id="Group_4" data-name="Group 4" transform="translate(42.675)">
      <g id="Group_3" data-name="Group 3">
        <path id="Path_88" data-name="Path 88" d="M62.5,20.133l-1.708-2.846a8.455,8.455,0,0,1-1.205-4.35V10.443a6.971,6.971,0,0,0-4.973-6.669V1.989a1.989,1.989,0,1,0-3.978,0V3.774a6.971,6.971,0,0,0-4.973,6.669v2.493a8.46,8.46,0,0,1-1.2,4.349l-1.708,2.846a.5.5,0,0,0,.426.754h18.9a.5.5,0,0,0,.427-.753Z" transform="translate(-42.675 0)" fill="#f3ae21"/>
      </g>
    </g>
    <g id="Group_6" data-name="Group 6" transform="translate(49.488 21.881)">
      <g id="Group_5" data-name="Group 5">
        <path id="Path_89" data-name="Path 89" d="M188.815,469.333a3.46,3.46,0,0,0,6.264,0Z" transform="translate(-188.815 -469.333)" fill="#f3ae21"/>
      </g>
    </g>
  </g>
</svg>
