<svg id="Icon" xmlns="http://www.w3.org/2000/svg" width="16.554" height="16.598" viewBox="0 0 16.554 16.598">
  <path id="Path_290" data-name="Path 290" d="M42.948,15.957a4.556,4.556,0,0,1-.792,2.573l2.656,2.656a8.294,8.294,0,0,0,0-10.458l-2.656,2.656A4.558,4.558,0,0,1,42.948,15.957Z" transform="translate(-30.114 -7.658)" fill="#f3ae21"/>
  <path id="Path_291" data-name="Path 291" d="M10.9,34.928A4.576,4.576,0,0,1,3.836,32H.077a8.3,8.3,0,0,0,13.484,5.585Z" transform="translate(-0.077 -22.843)" fill="#f3ae21"/>
  <path id="Path_292" data-name="Path 292" d="M3.836,7.44A4.576,4.576,0,0,1,10.9,4.512l2.656-2.656A8.3,8.3,0,0,0,.077,7.44Z" transform="translate(-0.077)" fill="#f3ae21"/>
</svg>
