<svg id="footsteps-silhouette-variant" xmlns="http://www.w3.org/2000/svg" width="18.711" height="25.917" viewBox="0 0 18.711 25.917">
  <path id="Path_242" data-name="Path 242" d="M83.075,19.444c1.4.479,2.632.784,4.406,1.329C86.8,29.382,78.658,25.963,83.075,19.444Zm7.269-7.909C90.252,8.949,89.8,5.558,86.17,6.09c-1.7.444-2.956,2.311-3.547,5.532a15.47,15.47,0,0,0,.247,5.748c.349,1.05.231.986.606,1.185,1.454.328,2.893.69,4.359,1.06C89.324,18.564,90.546,12.981,90.344,11.535Zm-11.193-.2A15.481,15.481,0,0,0,79.4,5.588C78.807,2.367,77.551.5,75.851.056c-3.627-.531-4.082,2.86-4.174,5.445-.2,1.446,1.02,7.029,2.509,8.08,1.466-.37,2.9-.732,4.359-1.06C78.92,12.322,78.8,12.386,79.151,11.336Zm-4.612,3.4c.681,8.609,8.822,5.19,4.406-1.329C77.547,13.889,76.313,14.193,74.539,14.738Z" transform="translate(-71.655 0)" fill="#62d248"/>
</svg>
