<svg id="timer-silhouette" xmlns="http://www.w3.org/2000/svg" width="18.894" height="21.529" viewBox="0 0 18.894 21.529">
  <g id="Group_166" data-name="Group 166" transform="translate(0)">
    <g id="Group_165" data-name="Group 165">
      <path id="Path_243" data-name="Path 243" d="M19.85,1.929h3.082a.542.542,0,0,0,.54-.541V.541A.542.542,0,0,0,22.932,0H19.85a.543.543,0,0,0-.541.541v.847A.542.542,0,0,0,19.85,1.929Z" transform="translate(-11.918)" fill="#ea3383"/>
      <path id="Path_244" data-name="Path 244" d="M12.368,5.837a9.417,9.417,0,0,0-6.7,2.791l2.054,1.483a6.906,6.906,0,1,1-.68.7L5.5,8.814a9.434,9.434,0,1,0,6.865-2.977Z" transform="translate(-2.921 -3.204)" fill="#ea3383"/>
      <path id="Path_245" data-name="Path 245" d="M17.023,21.393a1.491,1.491,0,0,1-1.174-.579l0,0L12.433,16.4a5.665,5.665,0,1,0,.932-.976l4.428,3.2,0,0a1.488,1.488,0,0,1-.767,2.766Z" transform="translate(-7.505 -7.759)" fill="#ea3383"/>
    </g>
  </g>
</svg>
