<svg id="Walk_icon" data-name="Walk icon" xmlns="http://www.w3.org/2000/svg" width="6.984" height="14.899" viewBox="0 0 6.984 14.899">
  <path id="Path_302" data-name="Path 302" d="M31.731,26.88l-1.492-1.646a.846.846,0,0,1-.183-.452L30,23.074v-.049a.478.478,0,0,0-.477-.477H27.483a.71.71,0,0,0-.6.379L24.919,27.1a.469.469,0,0,0,.235.63l.29.128a.483.483,0,0,0,.2.041h0a.5.5,0,0,0,.445-.271l.921-1.832V27.64c0,.011-.009.02-.013.031l-1.557,4.875a.764.764,0,0,0,.531.974l.1.028a.8.8,0,0,0,.21.028A.836.836,0,0,0,27.073,33l1.454-4.555.516,1.263a5.277,5.277,0,0,1,.3,1.179l.247,2.326a.7.7,0,0,0,.7.643.773.773,0,0,0,.181-.022l.1-.025a.89.89,0,0,0,.658-.956l-.365-2.837a5.593,5.593,0,0,0-.347-1.258l-.494-1.137c-.006-.015-.015-.028-.023-.042v-.77l.889.929a.459.459,0,0,0,.669,0l.165-.175A.512.512,0,0,0,31.731,26.88Z" transform="translate(-24.874 -18.96)" fill="#fff"/>
  <path id="Path_303" data-name="Path 303" d="M40.11,3.183a1.591,1.591,0,1,0-1.591-1.592A1.593,1.593,0,0,0,40.11,3.183Z" transform="translate(-36.348 0)" fill="#fff"/>
</svg>
