<svg id="Icon" xmlns="http://www.w3.org/2000/svg" width="16.955" height="11.065" viewBox="0 0 16.955 11.065">
  <g id="Group_180" data-name="Group 180" transform="translate(15.913 1.406)">
    <g id="Group_179" data-name="Group 179" transform="translate(0 0)">
      <path id="Path_286" data-name="Path 286" d="M480.534,131.4v8.529a1.4,1.4,0,0,0,1.042-1.354v-5.822A1.4,1.4,0,0,0,480.534,131.4Z" transform="translate(-480.534 -131.405)" fill="#f3ae21"/>
    </g>
  </g>
  <g id="Group_182" data-name="Group 182" transform="translate(11.741 0.277)">
    <g id="Group_181" data-name="Group 181" transform="translate(0 0)">
      <path id="Path_287" data-name="Path 287" d="M356.281,97.3h-.328a1.4,1.4,0,0,0-1.4,1.4v7.987a1.4,1.4,0,0,0,1.4,1.4h.328a1.4,1.4,0,0,0,1.4-1.4V98.7A1.4,1.4,0,0,0,356.281,97.3Z" transform="translate(-354.553 -97.301)" fill="#f3ae21"/>
    </g>
  </g>
  <g id="Group_184" data-name="Group 184" transform="translate(6.257 3.937)">
    <g id="Group_183" data-name="Group 183">
      <rect id="Rectangle_1366" data-name="Rectangle 1366" width="4.441" height="3.417" fill="#f3ae21"/>
    </g>
  </g>
  <g id="Group_186" data-name="Group 186" transform="translate(0 1.129)">
    <g id="Group_185" data-name="Group 185" transform="translate(0 0)">
      <path id="Path_288" data-name="Path 288" d="M0,124.4v5.822a1.4,1.4,0,0,0,1.042,1.354v-8.529A1.4,1.4,0,0,0,0,124.4Z" transform="translate(0 -123.044)" fill="#f3ae21"/>
    </g>
  </g>
  <g id="Group_188" data-name="Group 188" transform="translate(2.085)">
    <g id="Group_187" data-name="Group 187" transform="translate(0 0)">
      <path id="Path_289" data-name="Path 289" d="M64.7,88.942h-.328a1.4,1.4,0,0,0-1.4,1.4V98.33a1.4,1.4,0,0,0,1.4,1.4H64.7a1.4,1.4,0,0,0,1.4-1.4V90.342A1.4,1.4,0,0,0,64.7,88.942Z" transform="translate(-62.972 -88.942)" fill="#f3ae21"/>
    </g>
  </g>
</svg>
